<?xml version="1.0" encoding="UTF-8"?>
<svg width="320px" height="300px" viewBox="0 0 320 300" version="1.1" xmlns="http://www.w3.org/2000/svg" xmlns:xlink="http://www.w3.org/1999/xlink">
    <!-- Generator: Sketch 3.8.1 (29687) - http://www.bohemiancoding.com/sketch -->
    <title>mobile-storytelling-how-to</title>
    <desc>Created with Sketch.</desc>
    <defs></defs>
    <g id="Page-1" stroke="none" stroke-width="1" fill="none" fill-rule="evenodd">
        <g id="mobile-storytelling-how-to">
            <g id="Group-4" transform="translate(6.000000, 61.000000)" fill="#FFFFFF">
                <g id="arrow-right" transform="translate(17.500000, 25.500000) rotate(90.000000) translate(-17.500000, -25.500000) translate(0.000000, 8.000000)">
                    <path d="M27.2222222,35 L7.77777778,35 C3.4825,35 0,31.5175 0,27.2222222 L0,7.77777778 C0,3.4825 3.4825,0 7.77777778,0 L27.2222222,0 C31.5175,0 35,3.4825 35,7.77777778 L35,27.2222222 C35,31.5175 31.5175,35 27.2222222,35 L27.2222222,35 Z M31.1111111,7.77777778 C31.1111111,5.62916667 29.3708333,3.88888889 27.2222222,3.88888889 L7.77777778,3.88888889 C5.62916667,3.88888889 3.88888889,5.62916667 3.88888889,7.77777778 L3.88888889,27.2222222 C3.88888889,29.3708333 5.62916667,31.1111111 7.77777778,31.1111111 L27.2222222,31.1111111 C29.3708333,31.1111111 31.1111111,29.3708333 31.1111111,27.2222222 L31.1111111,7.77777778 L31.1111111,7.77777778 Z M19.4444444,27.2222222 L15.5555556,27.2222222 L15.5555556,15.5555556 L9.71055556,15.5555556 L17.5,7.77777778 L25.2913889,15.5555556 L19.4444444,15.5555556 L19.4444444,27.2222222 L19.4444444,27.2222222 Z" id="Shape"></path>
                </g>
                <g id="swipe-left" transform="translate(67.000000, 0.000000)">
                    <path d="M24.9,27.85 C24.85,25.85 23.55,24.1 21.65,23.45 C20.5,23.05 19.7,23.15 19.15,23.4 C18.95,23.1 18.7,22.85 18.45,22.65 C17.55,21.85 16.05,21.25 14.75,21.6 C14.6,21.65 14.5,21.7 14.35,21.75 C14.25,21.65 14.2,21.55 14.1,21.45 C13.4,20.65 12.4,20.1 11.3,19.9 C11.05,19.85 10.75,19.85 10.5,19.85 L10.5,14.95 C10.5,12.95 9.5,11.5 7.75,11.1 C6.7,10.85 5.65,11.1 4.85,11.75 C4,12.45 3.5,13.45 3.5,14.6 L3.5,16 L3.5,28.75 C1.95,29.15 0.7,30.35 0.3,31.9 C0.1,32.6 0.1,33.25 0.15,33.85 L0.15,40 C0.15,42.25 1.1,44.1 2.05,45.95 L2.15,46.15 C3.05,47.95 4.7,49.2 6.6,49.65 C7.4,49.85 8.1,49.85 8.85,49.85 L9.05,49.85 L15.75,49.85 L16.25,49.85 L16.8,49.85 C18.65,49.85 20.4,49.1 21.65,47.75 C23.3,46 24,43.45 24.5,41 C24.95,38.7 24.95,36.6 24.9,34.3 L24.9,27.85 L24.9,27.85 Z M22.65,34.35 C22.65,36.5 22.7,38.5 22.3,40.55 C21.85,42.7 21.3,44.9 20,46.25 C19.15,47.15 18,47.6 16.75,47.65 L15.75,47.65 L15.25,47.65 L8.85,47.65 C8.25,47.65 7.65,47.65 7.15,47.55 C5.85,47.25 4.8,46.4 4.15,45.2 L4,44.95 C3.15,43.3 2.35,41.75 2.35,40.05 L2.35,33.85 C2.35,33.35 2.35,32.9 2.45,32.55 C2.6,31.95 3,31.5 3.5,31.2 L3.5,36.2 C3.5,36.8 4,37.35 4.65,37.35 C5.25,37.35 5.8,36.85 5.8,36.2 L5.8,16.7 L5.8,16 L5.8,14.65 C5.8,14.2 6,13.8 6.35,13.55 C6.55,13.4 6.9,13.25 7.35,13.35 C8,13.5 8.35,14.05 8.35,15 L8.35,25.3 C8.35,25.9 8.85,26.45 9.5,26.45 C10.1,26.45 10.65,25.95 10.65,25.3 L10.65,22.15 C10.75,22.15 10.9,22.1 11.05,22.15 C11.6,22.25 12.15,22.55 12.5,22.95 C13.1,23.65 13.15,24.45 13.15,25.75 L13.15,25.8 L13.15,26.15 C13.15,26.75 13.65,27.3 14.3,27.3 C14.9,27.3 15.45,26.8 15.45,26.15 L15.45,25.8 L15.45,25.75 L15.45,24.4 C15.45,24.2 15.45,23.95 15.5,23.8 C15.9,23.7 16.6,24 17.1,24.4 C17.65,24.85 18,25.6 18,26.3 L18,27.3 C18,27.9 18.5,28.45 19.15,28.45 C19.8,28.45 20.3,27.95 20.3,27.3 L20.3,26.35 L20.3,26.35 C20.3,26.35 20.3,26.35 20.3,26.3 L20.3,25.9 L20.3,25.5 C20.35,25.45 20.6,25.45 21.15,25.6 C22.15,25.95 22.8,26.9 22.85,27.95 C22.65,29 22.65,33.85 22.65,34.35 L22.65,34.35 Z" id="Shape"></path>
                    <path d="M1.35,4.45 L1.35,4.65 C1.35,4.7 1.4,4.75 1.4,4.8 L1.4,4.85 C1.4,4.9 1.45,4.95 1.5,5 C1.5,5 1.5,5.05 1.55,5.05 C1.6,5.1 1.65,5.15 1.7,5.2 L1.7,5.2 L4.9,8.4 C5.1,8.6 5.4,8.75 5.7,8.75 C6,8.75 6.3,8.65 6.5,8.4 C6.95,7.95 6.95,7.25 6.5,6.8 L5.25,5.55 L15.4,5.55 C15.9,7.35 17.5,8.65 19.45,8.65 C21.75,8.65 23.65,6.75 23.65,4.45 C23.65,2.15 21.75,0.25 19.45,0.25 C17.5,0.25 15.9,1.55 15.4,3.35 L5.2,3.35 L6.45,2.1 C6.9,1.65 6.9,0.95 6.45,0.5 C6,0.05 5.3,0.05 4.85,0.5 L1.65,3.7 L1.65,3.7 C1.6,3.75 1.55,3.8 1.5,3.85 C1.5,3.85 1.5,3.9 1.45,3.9 C1.4,3.95 1.4,4 1.35,4.05 L1.35,4.1 C1.35,4.15 1.3,4.2 1.3,4.25 C1.35,4.3 1.35,4.35 1.35,4.45 L1.35,4.45 Z M17.8,5.55 C17.55,5.25 17.45,4.85 17.45,4.4 C17.45,4 17.6,3.6 17.8,3.25 C18.15,2.75 18.75,2.4 19.4,2.4 C20.5,2.4 21.35,3.3 21.35,4.35 C21.35,5.4 20.45,6.3 19.4,6.3 C18.75,6.4 18.2,6.05 17.8,5.55 L17.8,5.55 Z" id="Shape"></path>
                </g>
                <text id="Go-to-next-snap" font-family="ArialMT, Arial" font-size="21" font-weight="normal">
                    <tspan x="118" y="33">Go to next snap</tspan>
                </text>
            </g>
            <g id="Group-3" transform="translate(6.000000, 124.666667)" fill="#FFFFFF">
                <g id="arrow-left" transform="translate(17.500000, 25.500000) rotate(-90.000000) translate(-17.500000, -25.500000) translate(0.000000, 8.000000)">
                    <path d="M27.2222222,35 L7.77777778,35 C3.4825,35 0,31.5175 0,27.2222222 L0,7.77777778 C0,3.4825 3.4825,0 7.77777778,0 L27.2222222,0 C31.5175,0 35,3.4825 35,7.77777778 L35,27.2222222 C35,31.5175 31.5175,35 27.2222222,35 L27.2222222,35 Z M31.1111111,7.77777778 C31.1111111,5.62916667 29.3708333,3.88888889 27.2222222,3.88888889 L7.77777778,3.88888889 C5.62916667,3.88888889 3.88888889,5.62916667 3.88888889,7.77777778 L3.88888889,27.2222222 C3.88888889,29.3708333 5.62916667,31.1111111 7.77777778,31.1111111 L27.2222222,31.1111111 C29.3708333,31.1111111 31.1111111,29.3708333 31.1111111,27.2222222 L31.1111111,7.77777778 L31.1111111,7.77777778 Z M19.4444444,27.2222222 L15.5555556,27.2222222 L15.5555556,15.5555556 L9.71055556,15.5555556 L17.5,7.77777778 L25.2913889,15.5555556 L19.4444444,15.5555556 L19.4444444,27.2222222 L19.4444444,27.2222222 Z" id="Shape"></path>
                </g>
                <g id="swipe-right" transform="translate(67.000000, 0.000000)">
                    <path d="M24.9,27.85 C24.85,25.85 23.55,24.1 21.65,23.45 C20.5,23.05 19.7,23.15 19.15,23.4 C18.95,23.1 18.7,22.85 18.45,22.65 C17.55,21.85 16.05,21.25 14.75,21.6 C14.6,21.65 14.5,21.7 14.35,21.75 C14.25,21.65 14.2,21.55 14.1,21.45 C13.4,20.65 12.4,20.1 11.3,19.9 C11.05,19.85 10.75,19.85 10.5,19.85 L10.5,14.95 C10.5,12.95 9.5,11.5 7.75,11.1 C6.7,10.85 5.65,11.1 4.85,11.75 C4,12.45 3.5,13.45 3.5,14.6 L3.5,16 L3.5,28.75 C1.95,29.15 0.7,30.35 0.3,31.9 C0.1,32.6 0.1,33.25 0.15,33.85 L0.15,40 C0.15,42.25 1.1,44.1 2.05,45.95 L2.15,46.15 C3.05,47.95 4.7,49.2 6.6,49.65 C7.4,49.85 8.1,49.85 8.85,49.85 L9.05,49.85 L15.75,49.85 L16.25,49.85 L16.8,49.85 C18.65,49.85 20.4,49.1 21.65,47.75 C23.3,46 24,43.45 24.5,41 C24.95,38.7 24.95,36.6 24.9,34.3 L24.9,27.85 L24.9,27.85 Z M22.65,34.35 C22.65,36.5 22.7,38.5 22.3,40.55 C21.85,42.7 21.3,44.9 20,46.25 C19.15,47.15 18,47.6 16.75,47.65 L15.75,47.65 L15.25,47.65 L8.85,47.65 C8.25,47.65 7.65,47.65 7.15,47.55 C5.85,47.25 4.8,46.4 4.15,45.2 L4,44.95 C3.15,43.3 2.35,41.75 2.35,40.05 L2.35,33.85 C2.35,33.35 2.35,32.9 2.45,32.55 C2.6,31.95 3,31.5 3.5,31.2 L3.5,36.2 C3.5,36.8 4,37.35 4.65,37.35 C5.25,37.35 5.8,36.85 5.8,36.2 L5.8,16.7 L5.8,16 L5.8,14.65 C5.8,14.2 6,13.8 6.35,13.55 C6.55,13.4 6.9,13.25 7.35,13.35 C8,13.5 8.35,14.05 8.35,15 L8.35,25.3 C8.35,25.9 8.85,26.45 9.5,26.45 C10.1,26.45 10.65,25.95 10.65,25.3 L10.65,22.15 C10.75,22.15 10.9,22.1 11.05,22.15 C11.6,22.25 12.15,22.55 12.5,22.95 C13.1,23.65 13.15,24.45 13.15,25.75 L13.15,25.8 L13.15,26.15 C13.15,26.75 13.65,27.3 14.3,27.3 C14.9,27.3 15.45,26.8 15.45,26.15 L15.45,25.8 L15.45,25.75 L15.45,24.4 C15.45,24.2 15.45,23.95 15.5,23.8 C15.9,23.7 16.6,24 17.1,24.4 C17.65,24.85 18,25.6 18,26.3 L18,27.3 C18,27.9 18.5,28.45 19.15,28.45 C19.8,28.45 20.3,27.95 20.3,27.3 L20.3,26.35 L20.3,26.35 C20.3,26.35 20.3,26.35 20.3,26.3 L20.3,25.9 L20.3,25.5 C20.35,25.45 20.6,25.45 21.15,25.6 C22.15,25.95 22.8,26.9 22.85,27.95 C22.65,29 22.65,33.85 22.65,34.35 L22.65,34.35 Z" id="Shape"></path>
                    <path d="M23.6,4.2 C23.6,4.15 23.55,4.1 23.55,4.05 L23.55,4 C23.55,3.95 23.5,3.9 23.45,3.85 C23.45,3.85 23.45,3.8 23.4,3.8 C23.35,3.75 23.3,3.7 23.25,3.65 L23.25,3.65 L20.05,0.45 C19.6,9.5617958e-15 18.9,9.5617958e-15 18.45,0.45 C18,0.9 18,1.6 18.45,2.05 L19.7,3.3 L9.65,3.3 C9.15,1.5 7.55,0.2 5.6,0.2 C3.3,0.2 1.4,2.1 1.4,4.4 C1.4,6.7 3.3,8.6 5.6,8.6 C7.55,8.6 9.15,7.3 9.65,5.5 L19.8,5.5 L18.55,6.75 C18.1,7.2 18.1,7.9 18.55,8.35 C18.75,8.55 19.05,8.7 19.35,8.7 C19.65,8.7 19.95,8.6 20.15,8.35 L23.35,5.15 L23.35,5.15 C23.4,5.1 23.45,5.05 23.5,5 C23.5,5 23.5,4.95 23.55,4.95 C23.6,4.9 23.6,4.85 23.65,4.8 L23.65,4.75 C23.65,4.7 23.7,4.65 23.7,4.6 L23.7,4.4 C23.65,4.35 23.65,4.3 23.6,4.2 L23.6,4.2 Z M5.55,6.4 C4.45,6.4 3.6,5.5 3.6,4.45 C3.6,3.4 4.5,2.5 5.55,2.5 C6.2,2.5 6.8,2.85 7.15,3.35 C7.4,3.65 7.5,4.05 7.5,4.5 C7.5,4.9 7.35,5.3 7.15,5.65 C6.8,6.05 6.25,6.4 5.55,6.4 L5.55,6.4 Z" id="Shape"></path>
                </g>
                <text id="Go-to-previews-snap" font-family="ArialMT, Arial" font-size="21" font-weight="normal">
                    <tspan x="118" y="33">Go to previews snap</tspan>
                </text>
            </g>
            <g id="Group-2" transform="translate(6.000000, 188.333333)" fill="#FFFFFF">
                <g id="arrow-up" transform="translate(0.000000, 2.000000)">
                    <path d="M27.2222222,35 L7.77777778,35 C3.4825,35 0,31.5175 0,27.2222222 L0,7.77777778 C0,3.4825 3.4825,0 7.77777778,0 L27.2222222,0 C31.5175,0 35,3.4825 35,7.77777778 L35,27.2222222 C35,31.5175 31.5175,35 27.2222222,35 L27.2222222,35 Z M31.1111111,7.77777778 C31.1111111,5.62916667 29.3708333,3.88888889 27.2222222,3.88888889 L7.77777778,3.88888889 C5.62916667,3.88888889 3.88888889,5.62916667 3.88888889,7.77777778 L3.88888889,27.2222222 C3.88888889,29.3708333 5.62916667,31.1111111 7.77777778,31.1111111 L27.2222222,31.1111111 C29.3708333,31.1111111 31.1111111,29.3708333 31.1111111,27.2222222 L31.1111111,7.77777778 L31.1111111,7.77777778 Z M19.4444444,27.2222222 L15.5555556,27.2222222 L15.5555556,15.5555556 L9.71055556,15.5555556 L17.5,7.77777778 L25.2913889,15.5555556 L19.4444444,15.5555556 L19.4444444,27.2222222 L19.4444444,27.2222222 Z" id="Shape"></path>
                </g>
                <g id="swipe-down" transform="translate(62.000000, 0.000000)">
                    <path d="M34.1903567,16.4855072 C34.1415831,14.5345596 32.8734671,12.8274805 31.0200669,12.1934225 C29.898272,11.803233 29.117893,11.9007804 28.5813824,12.1446488 C28.3862876,11.8520067 28.1424192,11.6081382 27.8985507,11.4130435 C27.0206243,10.6326644 25.5574136,10.0473802 24.2892977,10.388796 C24.1429766,10.4375697 24.0454292,10.4863434 23.8991081,10.5351171 C23.8015608,10.4375697 23.7527871,10.3400223 23.6552397,10.2424749 C22.972408,9.46209588 21.9969342,8.92558528 20.923913,8.73049052 C20.6800446,8.68171683 20.3874025,8.68171683 20.143534,8.68171683 L20.143534,3.90189521 C20.143534,1.9509476 19.1680602,0.536510591 17.460981,0.14632107 C16.4367336,-0.0975473802 15.4124861,0.14632107 14.632107,0.780379041 C13.8029543,1.4632107 13.2664437,2.4386845 13.2664437,3.56047938 L13.2664437,4.9261427 L13.2664437,17.3634337 C11.7544593,17.7536232 10.5351171,18.9241918 10.1449275,20.4361761 C9.94983278,21.1190078 9.94983278,21.7530658 9.99860647,22.3383501 L9.99860647,28.3375139 C9.99860647,30.53233 10.9253066,32.3369565 11.8520067,34.1415831 L11.9495541,34.3366778 C12.8274805,36.0925307 14.4370123,37.3118729 16.2904125,37.7508361 C17.0707915,37.9459309 17.7536232,37.9459309 18.4852285,37.9459309 L18.6803233,37.9459309 L25.2159978,37.9459309 L25.7037347,37.9459309 L26.2402453,37.9459309 C28.0448718,37.9459309 29.7519509,37.2143255 30.9712932,35.8974359 C32.6295987,34.1903567 33.3124303,31.7028986 33.7513935,29.264214 C34.1903567,27.0206243 34.1903567,24.9721293 34.1415831,22.7285396 C34.1903567,22.2895764 34.1903567,17.6073021 34.1903567,16.4855072 L34.1903567,16.4855072 Z M31.9955407,22.826087 C31.9955407,24.9233556 32.0443144,26.8743032 31.6541249,28.8740245 C31.2151616,30.9712932 30.6786511,33.1173356 29.4105351,34.4342252 C28.5813824,35.3121516 27.4595875,35.7511148 26.2402453,35.7998885 L25.2647715,35.7998885 L24.7770346,35.7998885 L18.5340022,35.7998885 C17.9487179,35.7998885 17.3634337,35.7998885 16.8756968,35.7023411 C15.6075808,35.409699 14.5833333,34.5805463 13.9492754,33.4099777 L13.8029543,33.1661093 C12.9738016,31.5565775 12.1934225,30.0445931 12.1934225,28.3862876 L12.1934225,22.3383501 C12.1934225,21.8506132 12.1934225,21.4116499 12.2909699,21.0702341 C12.437291,20.4849498 12.8274805,20.0459866 13.3152174,19.7533445 L13.3152174,24.6307135 C13.3152174,25.2159978 13.8029543,25.7525084 14.4370123,25.7525084 C15.0222965,25.7525084 15.5588071,25.2647715 15.5588071,24.6307135 L15.5588071,5.60897436 L15.5588071,4.9261427 L15.5588071,3.60925307 C15.5588071,3.17028986 15.7539019,2.78010033 16.0953177,2.53623188 C16.2904125,2.38991081 16.6318283,2.24358974 17.0707915,2.34113712 C17.7048495,2.48745819 18.0462653,3.02396878 18.0462653,3.9506689 L18.0462653,13.9980491 C18.0462653,14.5833333 18.5340022,15.1198439 19.1680602,15.1198439 C19.7533445,15.1198439 20.2898551,14.632107 20.2898551,13.9980491 L20.2898551,10.9253066 C20.3874025,10.9253066 20.5337235,10.8765329 20.6800446,10.9253066 C21.2165552,11.022854 21.7530658,11.3154961 22.0944816,11.7056856 C22.6797659,12.3885173 22.7285396,13.1688963 22.7285396,14.4370123 L22.7285396,14.485786 L22.7285396,14.8272018 C22.7285396,15.4124861 23.2162765,15.9489967 23.8503344,15.9489967 C24.4843924,15.9489967 24.9721293,15.4612598 24.9721293,14.8272018 L24.9721293,14.485786 L24.9721293,14.4370123 L24.9721293,13.1201226 C24.9721293,12.9250279 24.9721293,12.6811594 25.020903,12.5348384 C25.4110925,12.437291 26.0939242,12.7299331 26.5816611,13.1201226 C27.1181717,13.5590858 27.4595875,14.2906912 27.4595875,14.9735229 L27.4595875,15.9489967 C27.4595875,16.5342809 27.9473244,17.0707915 28.5813824,17.0707915 C29.2154404,17.0707915 29.7031773,16.5830546 29.7031773,15.9489967 L29.7031773,15.0222965 L29.7031773,15.0222965 C29.7031773,15.0222965 29.7031773,15.0222965 29.7031773,14.9735229 L29.7031773,14.5833333 L29.7031773,14.1931438 C29.7519509,14.1443701 29.9958194,14.1443701 30.53233,14.2906912 C31.5078038,14.632107 32.1418618,15.5588071 32.1906355,16.5830546 C31.9955407,17.6073021 31.9955407,22.3383501 31.9955407,22.826087 L31.9955407,22.826087 Z" id="Shape"></path>
                    <path d="M4.38963211,21.8018395 C4.4384058,21.8018395 4.48717949,21.7530658 4.53595318,21.7530658 L4.58472687,21.7530658 C4.63350056,21.7530658 4.68227425,21.7042921 4.73104794,21.6555184 C4.73104794,21.6555184 4.77982163,21.6555184 4.77982163,21.6067447 C4.82859532,21.557971 4.87736901,21.5091973 4.9261427,21.4604236 L4.9261427,21.4604236 L8.04765886,18.3389075 C8.48662207,17.8999443 8.48662207,17.2171126 8.04765886,16.7781494 C7.60869565,16.3391862 6.92586399,16.3391862 6.48690078,16.7781494 L5.26755853,18.0462653 L5.26755853,8.14520624 C7.02341137,7.65746934 8.29152731,6.09671126 8.29152731,4.19453735 C8.29152731,1.9509476 6.43812709,0.0975473802 4.19453735,0.0975473802 C1.9509476,0.0975473802 0.0975473802,1.9509476 0.0975473802,4.19453735 C0.0975473802,6.09671126 1.36566332,7.65746934 3.12151616,8.14520624 L3.12151616,18.0462653 L1.90217391,16.8269231 C1.4632107,16.3879599 0.780379041,16.3879599 0.341415831,16.8269231 C0.14632107,17.0220178 8.8817842e-16,17.31466 8.8817842e-16,17.6073021 C8.8817842e-16,17.8999443 0.0975473802,18.1925864 0.341415831,18.3876812 L3.462932,21.5091973 L3.462932,21.5091973 C3.51170569,21.557971 3.56047938,21.6067447 3.60925307,21.6555184 C3.60925307,21.6555184 3.65802676,21.6555184 3.65802676,21.7042921 C3.70680045,21.7530658 3.75557414,21.7530658 3.80434783,21.8018395 L3.85312152,21.8018395 C3.90189521,21.8018395 3.9506689,21.8506132 3.99944259,21.8506132 L4.19453735,21.8506132 C4.24331104,21.8018395 4.29208473,21.8018395 4.38963211,21.8018395 L4.38963211,21.8018395 Z M2.24358974,4.19453735 C2.24358974,3.12151616 3.12151616,2.29236343 4.14576366,2.29236343 C5.17001115,2.29236343 6.04793757,3.17028986 6.04793757,4.19453735 C6.04793757,4.82859532 5.70652174,5.4138796 5.21878484,5.75529543 C4.9261427,5.99916388 4.53595318,6.09671126 4.09698997,6.09671126 C3.65802676,6.09671126 3.31661093,5.95039019 2.97519509,5.75529543 C2.58500557,5.4138796 2.24358974,4.82859532 2.24358974,4.19453735 L2.24358974,4.19453735 Z" id="Shape"></path>
                </g>
                <text id="Go-to-top-snap" font-family="ArialMT, Arial" font-size="21" font-weight="normal">
                    <tspan x="118" y="27">Go to top snap</tspan>
                </text>
            </g>
            <g id="Group" transform="translate(6.000000, 240.000000)" fill="#FFFFFF">
                <g id="arrow-down" transform="translate(17.500000, 19.500000) rotate(180.000000) translate(-17.500000, -19.500000) translate(0.000000, 2.000000)">
                    <path d="M27.2222222,35 L7.77777778,35 C3.4825,35 0,31.5175 0,27.2222222 L0,7.77777778 C0,3.4825 3.4825,0 7.77777778,0 L27.2222222,0 C31.5175,0 35,3.4825 35,7.77777778 L35,27.2222222 C35,31.5175 31.5175,35 27.2222222,35 L27.2222222,35 Z M31.1111111,7.77777778 C31.1111111,5.62916667 29.3708333,3.88888889 27.2222222,3.88888889 L7.77777778,3.88888889 C5.62916667,3.88888889 3.88888889,5.62916667 3.88888889,7.77777778 L3.88888889,27.2222222 C3.88888889,29.3708333 5.62916667,31.1111111 7.77777778,31.1111111 L27.2222222,31.1111111 C29.3708333,31.1111111 31.1111111,29.3708333 31.1111111,27.2222222 L31.1111111,7.77777778 L31.1111111,7.77777778 Z M19.4444444,27.2222222 L15.5555556,27.2222222 L15.5555556,15.5555556 L9.71055556,15.5555556 L17.5,7.77777778 L25.2913889,15.5555556 L19.4444444,15.5555556 L19.4444444,27.2222222 L19.4444444,27.2222222 Z" id="Shape"></path>
                </g>
                <g id="swipe-up" transform="translate(62.000000, 0.000000)">
                    <path d="M34.8190615,16.4855072 C34.7700895,14.5345596 33.4968187,12.8274805 31.6358843,12.1934225 C30.5095293,11.803233 29.725978,11.9007804 29.1872864,12.1446488 C28.9913986,11.8520067 28.7465388,11.6081382 28.501679,11.4130435 C27.6201838,10.6326644 26.1510251,10.0473802 24.8777542,10.388796 C24.7308383,10.4375697 24.6328944,10.4863434 24.4859786,10.5351171 C24.3880346,10.4375697 24.3390627,10.3400223 24.2411188,10.2424749 C23.5555114,9.46209588 22.5760722,8.92558528 21.4986892,8.73049052 C21.2538294,8.68171683 20.9599976,8.68171683 20.7151379,8.68171683 L20.7151379,3.90189521 C20.7151379,1.9509476 19.7356987,0.536510591 18.0216802,0.14632107 C16.9932691,-0.0975473802 15.964858,0.14632107 15.1813067,0.780379041 C14.3487834,1.4632107 13.8100919,2.4386845 13.8100919,3.56047938 L13.8100919,4.9261427 L13.8100919,17.3634337 C12.2919612,17.7536232 11.0676623,18.9241918 10.6758867,20.4361761 C10.4799988,21.1190078 10.4799988,21.7530658 10.5289708,22.3383501 L10.5289708,28.3375139 C10.5289708,30.53233 11.459438,32.3369565 12.3899051,34.1415831 L12.4878491,34.3366778 C13.3693443,36.0925307 14.9854189,37.3118729 16.8463532,37.7508361 C17.6299046,37.9459309 18.315512,37.9459309 19.0500913,37.9459309 L19.2459791,37.9459309 L25.8082214,37.9459309 L26.297941,37.9459309 L26.8366325,37.9459309 C28.6485949,37.9459309 30.3626134,37.2143255 31.5869123,35.8974359 C33.2519589,34.1903567 33.9375663,31.7028986 34.3783139,29.264214 C34.8190615,27.0206243 34.8190615,24.9721293 34.7700895,22.7285396 C34.8190615,22.2895764 34.8190615,17.6073021 34.8190615,16.4855072 L34.8190615,16.4855072 Z M32.6153234,22.826087 C32.6153234,24.9233556 32.6642954,26.8743032 32.2725197,28.8740245 C31.8317721,30.9712932 31.2930806,33.1173356 30.0198097,34.4342252 C29.1872864,35.3121516 28.0609314,35.7511148 26.8366325,35.7998885 L25.8571934,35.7998885 L25.3674738,35.7998885 L19.0990633,35.7998885 C18.5113998,35.7998885 17.9237363,35.7998885 17.4340167,35.7023411 C16.1607458,35.409699 15.1323347,34.5805463 14.4956993,33.4099777 L14.3487834,33.1661093 C13.5162602,31.5565775 12.7327088,30.0445931 12.7327088,28.3862876 L12.7327088,22.3383501 C12.7327088,21.8506132 12.7327088,21.4116499 12.8306528,21.0702341 C12.9775686,20.4849498 13.3693443,20.0459866 13.8590639,19.7533445 L13.8590639,24.6307135 C13.8590639,25.2159978 14.3487834,25.7525084 14.9854189,25.7525084 C15.5730824,25.7525084 16.1117739,25.2647715 16.1117739,24.6307135 L16.1117739,5.60897436 L16.1117739,4.9261427 L16.1117739,3.60925307 C16.1117739,3.17028986 16.3076617,2.78010033 16.6504654,2.53623188 C16.8463532,2.38991081 17.1891569,2.24358974 17.6299046,2.34113712 C18.26654,2.48745819 18.6093437,3.02396878 18.6093437,3.9506689 L18.6093437,13.9980491 C18.6093437,14.5833333 19.0990633,15.1198439 19.7356987,15.1198439 C20.3233622,15.1198439 20.8620537,14.632107 20.8620537,13.9980491 L20.8620537,10.9253066 C20.9599976,10.9253066 21.1069135,10.8765329 21.2538294,10.9253066 C21.7925209,11.022854 22.3312124,11.3154961 22.6740161,11.7056856 C23.2616796,12.3885173 23.3106516,13.1688963 23.3106516,14.4370123 L23.3106516,14.485786 L23.3106516,14.8272018 C23.3106516,15.4124861 23.8003712,15.9489967 24.4370066,15.9489967 C25.0246701,15.9489967 25.5633616,15.4612598 25.5633616,14.8272018 L25.5633616,14.485786 L25.5633616,14.4370123 L25.5633616,13.1201226 C25.5633616,12.9250279 25.5633616,12.6811594 25.6123336,12.5348384 C26.0041092,12.437291 26.6897166,12.7299331 27.1794362,13.1201226 C27.7181277,13.5590858 28.0609314,14.2906912 28.0609314,14.9735229 L28.0609314,15.9489967 C28.0609314,16.5342809 28.550651,17.0707915 29.1872864,17.0707915 C29.7749499,17.0707915 30.3136415,16.5830546 30.3136415,15.9489967 L30.3136415,15.0222965 L30.3136415,15.0222965 C30.3136415,15.0222965 30.3136415,15.0222965 30.3136415,14.9735229 L30.3136415,14.5833333 L30.3136415,14.1931438 C30.3626134,14.1443701 30.6074732,14.1443701 31.1461647,14.2906912 C32.1256039,14.632107 32.7622393,15.5588071 32.8112113,16.5830546 C32.6153234,17.6073021 32.6153234,22.3383501 32.6153234,22.826087 L32.6153234,22.826087 Z" id="Shape"></path>
                    <path d="M4.4564481,0.0975473802 C4.40747614,0.0975473802 4.35850418,0.14632107 4.30953223,0.14632107 L4.26056027,0.14632107 C4.21158831,0.14632107 4.16261635,0.19509476 4.1136444,0.24386845 C4.1136444,0.24386845 4.06467244,0.24386845 4.06467244,0.29264214 C4.01570048,0.341415831 3.96672853,0.390189521 3.91775657,0.438963211 L3.91775657,0.438963211 L0.783551314,3.56047938 C0.3428037,3.99944259 0.3428037,4.68227425 0.783551314,5.12123746 C1.22429893,5.56020067 1.90990633,5.56020067 2.35065394,5.12123746 L3.57495287,3.90189521 L3.57495287,13.8029543 C1.81196241,14.2906912 0.538691528,15.8514493 0.538691528,17.7536232 C0.538691528,19.9972129 2.3996259,21.8506132 4.65233593,21.8506132 C6.90504595,21.8506132 8.76598032,19.9972129 8.76598032,17.7536232 C8.76598032,15.8514493 7.49270944,14.2906912 5.72971898,13.8029543 L5.72971898,3.80434783 L6.95401791,5.02369008 C7.39476552,5.46265329 8.08037292,5.46265329 8.52112054,5.02369008 C8.71700837,4.82859532 8.86392424,4.53595318 8.86392424,4.24331104 C8.86392424,3.9506689 8.76598032,3.65802676 8.52112054,3.462932 L5.38691528,0.341415831 L5.38691528,0.341415831 C5.33794333,0.29264214 5.28897137,0.24386845 5.23999941,0.19509476 C5.23999941,0.19509476 5.19102745,0.19509476 5.19102745,0.14632107 C5.1420555,0.0975473802 5.09308354,0.0975473802 5.04411158,0.0487736901 L4.99513963,0.0487736901 C4.94616767,0.0487736901 4.89719571,-3.55271368e-15 4.84822375,-3.55271368e-15 L4.65233593,-3.55271368e-15 C4.60336397,-3.55271368e-15 4.50542005,0.0975473802 4.4564481,0.0975473802 L4.4564481,0.0975473802 Z M6.56224225,17.7048495 C6.56224225,18.7778707 5.68074702,19.6070234 4.65233593,19.6070234 C3.62392483,19.6070234 2.7424296,18.729097 2.7424296,17.7048495 C2.7424296,17.0707915 3.0852333,16.4855072 3.57495287,16.1440914 C3.86878461,15.900223 4.26056027,15.8026756 4.70130788,15.8026756 C5.1420555,15.8026756 5.4848592,15.9489967 5.8276629,16.1440914 C6.26841051,16.4855072 6.56224225,17.0707915 6.56224225,17.7048495 L6.56224225,17.7048495 Z" id="Shape"></path>
                </g>
                <text id="Go-to-bottom-snap" font-family="ArialMT, Arial" font-size="21" font-weight="normal">
                    <tspan x="118" y="27">Go to bottom snap</tspan>
                </text>
            </g>
            <path d="M50.5,43.5 L269.53653,43.5" id="Line" stroke="#FFFFFF" stroke-width="3" stroke-linecap="square"></path>
            <text id="How-to-Navigate" font-family="Arial-BoldMT, Arial" font-size="22" font-weight="bold" fill="#FFFFFF">
                <tspan x="74" y="30">How to Navigate</tspan>
            </text>
        </g>
    </g>
</svg>