<svg xmlns="http://www.w3.org/2000/svg" x="0" y="0" width="510" height="180"><path fill="#fff" d="M6,173.7h29.8v-54.2h17.6c24.3,0,28.5-0.3,37.6-2.5c12.5-3,22.9-8.6,30.7-16.3c3.4-3.4,7.3-8.5,8.9-11.9 c0.2-0.3,2.6-5.5,3.6-8.6c2-6.1,2.7-11,2.7-19.2c0-5.5-0.4-8.9-1.5-14c-0.6-2.7-2.2-7.8-3.2-9.8c-3.1-6.6-5.7-10.4-10.5-15.1 C111.4,11.7,97.5,6,79.4,4.7c-1.9-0.1-16.7-0.2-38.3-0.2H6V173.7z M83.125,33.375c9.25,1.75,17.614,10.648,19.125,12.375 c0.437,0.499,4.327,8.034,4.375,15.625c0.048,7.63-3.747,15.318-4.084,15.972C101.562,78.627,92.3,88.5,83.3,90.8 c-6.1,1.5-8.8,1.7-30.4,1.7h-17V62.1V31.6H53C57.125,31.596,75.712,31.973,83.125,33.375z"/><path fill="#fff" d="M339.2,4.8C339.3,5,408.9,173.9,408.9,173.9H435c0,0,69.8-169.101,69.8-169.2c0-0.2-31.899-0.2-31.899-0.2 S422.7,133.4,422.6,133.4c-0.1,0-50.8-128.9-50.8-128.9L339.2,4.8z"/><circle fill="none" stroke="#fff" stroke-width="29" stroke-dasharray="6" cx="245.75" cy="88.75" r="72.75"></circle></svg>
