<svg width="320" height="300" viewBox="0 0 320 300" xmlns="http://www.w3.org/2000/svg"><title>mobile-storytelling-how-to</title><g fill="none" fill-rule="evenodd"><g fill="#FFF"><path d="M6 96.222V76.778A7.778 7.778 0 0 1 13.778 69h19.444A7.778 7.778 0 0 1 41 76.778v19.444A7.778 7.778 0 0 1 33.222 104H13.778A7.778 7.778 0 0 1 6 96.222zm27.222 3.89a3.888 3.888 0 0 0 3.89-3.89V76.778a3.888 3.888 0 0 0-3.89-3.89H13.778a3.888 3.888 0 0 0-3.89 3.89v19.444a3.888 3.888 0 0 0 3.89 3.89h19.444zM13.778 88.443v-3.888h11.666V78.71l7.778 7.789-7.778 7.791v-5.847H13.778zM97.9 88.85c-.05-2-1.35-3.75-3.25-4.4-1.15-.4-1.95-.3-2.5-.05-.2-.3-.45-.55-.7-.75-.9-.8-2.4-1.4-3.7-1.05-.15.05-.25.1-.4.15-.1-.1-.15-.2-.25-.3-.7-.8-1.7-1.35-2.8-1.55-.25-.05-.55-.05-.8-.05v-4.9c0-2-1-3.45-2.75-3.85-1.05-.25-2.1 0-2.9.65-.85.7-1.35 1.7-1.35 2.85v14.15c-1.55.4-2.8 1.6-3.2 3.15-.2.7-.2 1.35-.15 1.95V101c0 2.25.95 4.1 1.9 5.95l.1.2c.9 1.8 2.55 3.05 4.45 3.5.8.2 1.5.2 2.25.2h7.95c1.85 0 3.6-.75 4.85-2.1C96.3 107 97 104.45 97.5 102c.45-2.3.45-4.4.4-6.7v-6.45zm-2.25 6.5c0 2.15.05 4.15-.35 6.2-.45 2.15-1 4.35-2.3 5.7-.85.9-2 1.35-3.25 1.4h-7.9c-.6 0-1.2 0-1.7-.1-1.3-.3-2.35-1.15-3-2.35l-.15-.25c-.85-1.65-1.65-3.2-1.65-4.9v-6.2c0-.5 0-.95.1-1.3.15-.6.55-1.05 1.05-1.35v5c0 .6.5 1.15 1.15 1.15.6 0 1.15-.5 1.15-1.15V75.65c0-.45.2-.85.55-1.1.2-.15.55-.3 1-.2.65.15 1 .7 1 1.65v10.3c0 .6.5 1.15 1.15 1.15.6 0 1.15-.5 1.15-1.15v-3.15c.1 0 .25-.05.4 0 .55.1 1.1.4 1.45.8.6.7.65 1.5.65 2.8V87.15c0 .6.5 1.15 1.15 1.15.6 0 1.15-.5 1.15-1.15V85.4c0-.2 0-.45.05-.6.4-.1 1.1.2 1.6.6.55.45.9 1.2.9 1.9v1c0 .6.5 1.15 1.15 1.15.65 0 1.15-.5 1.15-1.15v-.95V86.5c.05-.05.3-.05.85.1 1 .35 1.65 1.3 1.7 2.35-.2 1.05-.2 5.9-.2 6.4zM74.35 65.45v.2c0 .05.05.1.05.15v.05c0 .05.05.1.1.15 0 0 0 .05.05.05l.15.15 3.2 3.2c.2.2.5.35.8.35.3 0 .6-.1.8-.35.45-.45.45-1.15 0-1.6l-1.25-1.25H88.4c.5 1.8 2.1 3.1 4.05 3.1 2.3 0 4.2-1.9 4.2-4.2 0-2.3-1.9-4.2-4.2-4.2-1.95 0-3.55 1.3-4.05 3.1H78.2l1.25-1.25c.45-.45.45-1.15 0-1.6-.45-.45-1.15-.45-1.6 0l-3.2 3.2-.15.15s0 .05-.05.05c-.05.05-.05.1-.1.15v.05c0 .05-.05.1-.05.15.05.05.05.1.05.2zm16.45 1.1c-.25-.3-.35-.7-.35-1.15 0-.4.15-.8.35-1.15.35-.5.95-.85 1.6-.85 1.1 0 1.95.9 1.95 1.95 0 1.05-.9 1.95-1.95 1.95-.65.1-1.2-.25-1.6-.75z"/><text font-family="ArialMT, Arial" font-size="21" transform="translate(6 61)"><tspan x="118" y="33">Go to next snap</tspan></text></g><g fill="#FFF"><path d="M41 140.444v19.445a7.778 7.778 0 0 1-7.778 7.778H13.778A7.778 7.778 0 0 1 6 159.889v-19.445a7.778 7.778 0 0 1 7.778-7.777h19.444A7.778 7.778 0 0 1 41 140.444zm-27.222-3.888a3.888 3.888 0 0 0-3.89 3.888v19.445a3.888 3.888 0 0 0 3.89 3.889h19.444a3.888 3.888 0 0 0 3.89-3.89v-19.444a3.888 3.888 0 0 0-3.89-3.888H13.778zm19.444 11.666v3.89H21.556v5.844l-7.778-7.79 7.778-7.79v5.846h11.666zM97.9 152.517c-.05-2-1.35-3.75-3.25-4.4-1.15-.4-1.95-.3-2.5-.05-.2-.3-.45-.55-.7-.75-.9-.8-2.4-1.4-3.7-1.05-.15.05-.25.1-.4.15-.1-.1-.15-.2-.25-.3-.7-.8-1.7-1.35-2.8-1.55-.25-.05-.55-.05-.8-.05v-4.9c0-2-1-3.45-2.75-3.85-1.05-.25-2.1 0-2.9.65-.85.7-1.35 1.7-1.35 2.85v14.15c-1.55.4-2.8 1.6-3.2 3.15-.2.7-.2 1.35-.15 1.95v6.15c0 2.25.95 4.1 1.9 5.95l.1.2c.9 1.8 2.55 3.05 4.45 3.5.8.2 1.5.2 2.25.2h7.95c1.85 0 3.6-.75 4.85-2.1 1.65-1.75 2.35-4.3 2.85-6.75.45-2.3.45-4.4.4-6.7v-6.45zm-2.25 6.5c0 2.15.05 4.15-.35 6.2-.45 2.15-1 4.35-2.3 5.7-.85.9-2 1.35-3.25 1.4h-7.9c-.6 0-1.2 0-1.7-.1-1.3-.3-2.35-1.15-3-2.35l-.15-.25c-.85-1.65-1.65-3.2-1.65-4.9v-6.2c0-.5 0-.95.1-1.3.15-.6.55-1.05 1.05-1.35v5c0 .6.5 1.15 1.15 1.15.6 0 1.15-.5 1.15-1.15v-21.55c0-.45.2-.85.55-1.1.2-.15.55-.3 1-.2.65.15 1 .7 1 1.65v10.3c0 .6.5 1.15 1.15 1.15.6 0 1.15-.5 1.15-1.15v-3.15c.1 0 .25-.05.4 0 .55.1 1.1.4 1.45.8.6.7.65 1.5.65 2.8V150.817c0 .6.5 1.15 1.15 1.15.6 0 1.15-.5 1.15-1.15v-1.75c0-.2 0-.45.05-.6.4-.1 1.1.2 1.6.6.55.45.9 1.2.9 1.9v1c0 .6.5 1.15 1.15 1.15.65 0 1.15-.5 1.15-1.15v-.95V150.167c.05-.05.3-.05.85.1 1 .35 1.65 1.3 1.7 2.35-.2 1.05-.2 5.9-.2 6.4zM96.6 128.867c0-.05-.05-.1-.05-.15v-.05c0-.05-.05-.1-.1-.15 0 0 0-.05-.05-.05l-.15-.15-3.2-3.2c-.45-.45-1.15-.45-1.6 0-.45.45-.45 1.15 0 1.6l1.25 1.25H82.65c-.5-1.8-2.1-3.1-4.05-3.1-2.3 0-4.2 1.9-4.2 4.2 0 2.3 1.9 4.2 4.2 4.2 1.95 0 3.55-1.3 4.05-3.1H92.8l-1.25 1.25c-.45.45-.45 1.15 0 1.6.2.2.5.35.8.35.3 0 .6-.1.8-.35l3.2-3.2.15-.15s0-.05.05-.05c.05-.05.05-.1.1-.15v-.05c0-.05.05-.1.05-.15v-.2c-.05-.05-.05-.1-.1-.2zm-18.05 2.2c-1.1 0-1.95-.9-1.95-1.95 0-1.05.9-1.95 1.95-1.95.65 0 1.25.35 1.6.85.25.3.35.7.35 1.15 0 .4-.15.8-.35 1.15-.35.4-.9.75-1.6.75z"/><text font-family="ArialMT, Arial" font-size="21" transform="translate(6 124.667)"><tspan x="118" y="33">Go to previews snap</tspan></text></g><g fill="#FFF"><path d="M33.222 225.333H13.778A7.778 7.778 0 0 1 6 217.556V198.11a7.778 7.778 0 0 1 7.778-7.778h19.444A7.778 7.778 0 0 1 41 198.111v19.445a7.778 7.778 0 0 1-7.778 7.777zm3.89-27.222a3.888 3.888 0 0 0-3.89-3.889H13.778a3.888 3.888 0 0 0-3.89 3.89v19.444a3.888 3.888 0 0 0 3.89 3.888h19.444a3.888 3.888 0 0 0 3.89-3.888V198.11zm-11.668 19.445h-3.888v-11.667H15.71l7.789-7.778 7.791 7.778h-5.847v11.667zM102.19 204.819a4.667 4.667 0 0 0-3.17-4.292c-1.122-.39-1.902-.293-2.439-.049a3.283 3.283 0 0 0-.682-.732c-.878-.78-2.342-1.365-3.61-1.024-.146.049-.244.098-.39.146-.097-.097-.146-.195-.244-.292-.683-.78-1.658-1.317-2.731-1.512-.244-.049-.537-.049-.78-.049v-4.78c0-1.95-.976-3.365-2.683-3.755a3.249 3.249 0 0 0-2.829.634c-.829.683-1.366 1.658-1.366 2.78v13.803c-1.512.39-2.73 1.56-3.121 3.073-.195.682-.195 1.316-.146 1.902v5.999c0 2.195.926 4 1.853 5.804l.098.195a6.513 6.513 0 0 0 4.34 3.414c.78.195 1.464.195 2.195.195H94.24a6.418 6.418 0 0 0 4.731-2.048c1.659-1.707 2.341-4.195 2.78-6.633.44-2.244.44-4.293.39-6.536.05-.44.05-5.121.05-6.243zm-2.194 6.34c0 2.098.048 4.049-.342 6.048-.439 2.098-.975 4.244-2.243 5.56-.83.878-1.951 1.317-3.17 1.366H86.533c-.585 0-1.17 0-1.658-.097-1.268-.293-2.293-1.122-2.927-2.293l-.146-.244c-.83-1.61-1.61-3.121-1.61-4.78v-6.047c0-.488 0-.927.098-1.268.146-.586.536-1.025 1.024-1.317v4.877c0 .585.488 1.122 1.122 1.122.585 0 1.122-.488 1.122-1.122V191.943c0-.44.195-.83.536-1.073.195-.147.537-.293.976-.196.634.147.975.683.975 1.61v10.047c0 .586.488 1.122 1.122 1.122.585 0 1.122-.488 1.122-1.122v-3.072c.097 0 .244-.05.39 0 .537.097 1.073.39 1.414.78.586.683.635 1.463.635 2.731v.39c0 .586.487 1.122 1.121 1.122s1.122-.487 1.122-1.121v-1.708c0-.195 0-.439.049-.585.39-.097 1.073.195 1.56.585a2.49 2.49 0 0 1 .879 1.854v.975c0 .586.487 1.122 1.121 1.122s1.122-.488 1.122-1.122v-.926V202.526c.049-.048.293-.048.83.098.975.341 1.609 1.268 1.658 2.292-.195 1.025-.195 5.756-.195 6.243zM72.39 210.135c.048 0 .097-.049.146-.049h.049c.049 0 .097-.048.146-.097 0 0 .049 0 .049-.049l.146-.146 3.122-3.122a1.09 1.09 0 0 0 0-1.56 1.09 1.09 0 0 0-1.561 0l-1.22 1.268v-9.901c1.756-.488 3.025-2.049 3.025-3.951 0-2.244-1.854-4.097-4.097-4.097-2.244 0-4.097 1.853-4.097 4.097 0 1.902 1.268 3.463 3.024 3.95v9.902l-1.22-1.22a1.09 1.09 0 0 0-1.56 0 1.151 1.151 0 0 0-.342.78c0 .293.098.586.341.781l3.122 3.122.146.146s.049 0 .049.049c.049.048.098.048.146.097h.05c.048 0 .097.049.145.049h.196c.048-.049.097-.049.195-.049zm-2.146-17.607c0-1.073.878-1.902 1.902-1.902s1.902.878 1.902 1.902a1.94 1.94 0 0 1-.83 1.56c-.292.244-.682.342-1.121.342-.439 0-.78-.146-1.122-.341-.39-.342-.731-.927-.731-1.561z"/><text font-family="ArialMT, Arial" font-size="21" transform="translate(6 188.333)"><tspan x="118" y="27">Go to top snap</tspan></text></g><g fill="#FFF"><path d="M13.778 242h19.444A7.778 7.778 0 0 1 41 249.778v19.444A7.778 7.778 0 0 1 33.222 277H13.778A7.778 7.778 0 0 1 6 269.222v-19.444A7.778 7.778 0 0 1 13.778 242zm-3.89 27.222a3.888 3.888 0 0 0 3.89 3.89h19.444a3.888 3.888 0 0 0 3.89-3.89v-19.444a3.888 3.888 0 0 0-3.89-3.89H13.778a3.888 3.888 0 0 0-3.89 3.89v19.444zm11.668-19.444h3.888v11.666h5.845l-7.789 7.778-7.791-7.778h5.847v-11.666zM102.82 256.486c-.05-1.951-1.323-3.659-3.184-4.293-1.126-.39-1.91-.292-2.449-.048a3.288 3.288 0 0 0-.685-.732c-.882-.78-2.351-1.366-3.624-1.024-.147.049-.245.097-.392.146-.098-.097-.147-.195-.245-.293-.685-.78-1.665-1.316-2.742-1.512-.245-.048-.539-.048-.784-.048v-4.78c0-1.951-.98-3.365-2.693-3.756a3.272 3.272 0 0 0-2.84.634c-.833.683-1.372 1.659-1.372 2.78V257.363c-1.518.39-2.742 1.561-3.134 3.073-.196.683-.196 1.317-.147 1.902v6c0 2.194.93 3.999 1.86 5.804l.099.195c.881 1.756 2.497 2.975 4.358 3.414.784.195 1.47.195 2.204.195h7.787a6.457 6.457 0 0 0 4.75-2.049c1.665-1.707 2.35-4.194 2.791-6.633.441-2.243.441-4.292.392-6.535.05-.44.05-5.122.05-6.243zm-2.205 6.34c0 2.097.05 4.048-.342 6.048-.441 2.097-.98 4.243-2.253 5.56-.833.878-1.96 1.317-3.183 1.366H87.099c-.588 0-1.175 0-1.665-.098-1.273-.292-2.302-1.121-2.938-2.292l-.147-.244c-.833-1.61-1.616-3.121-1.616-4.78v-6.048c0-.487 0-.926.098-1.268.147-.585.538-1.024 1.028-1.317v4.878c0 .585.49 1.122 1.126 1.122.588 0 1.127-.488 1.127-1.122v-21.022c0-.439.196-.829.538-1.073a1.19 1.19 0 0 1 .98-.195c.637.146.98.683.98 1.61v10.047c0 .585.49 1.122 1.126 1.122.587 0 1.126-.488 1.126-1.122v-3.073c.098 0 .245-.048.392 0 .539.098 1.077.39 1.42.78.588.684.637 1.464.637 2.732v.39c0 .585.49 1.122 1.126 1.122.588 0 1.126-.488 1.126-1.122V253.12c0-.195 0-.439.05-.585.391-.098 1.077.195 1.566.585.54.44.882 1.17.882 1.854v.975c0 .585.49 1.122 1.126 1.122.588 0 1.127-.488 1.127-1.122v-.927V254.194c.049-.05.293-.05.832.097.98.341 1.616 1.268 1.665 2.292-.196 1.024-.196 5.755-.196 6.243zM72.456 240.098c-.049 0-.097.048-.146.048h-.05c-.048 0-.097.05-.146.098 0 0-.05 0-.05.049l-.146.146-3.134 3.121a1.086 1.086 0 0 0 0 1.561c.44.44 1.126.44 1.567 0l1.224-1.22v9.902c-1.763.488-3.036 2.048-3.036 3.95 0 2.244 1.86 4.098 4.113 4.098s4.114-1.854 4.114-4.097c0-1.903-1.273-3.463-3.036-3.951v-9.999l1.224 1.22c.44.439 1.126.439 1.567 0 .196-.195.343-.488.343-.78 0-.293-.098-.586-.343-.781l-3.134-3.122c-.05-.048-.098-.097-.147-.146 0 0-.049 0-.049-.049-.049-.048-.098-.048-.147-.097h-.049c-.049 0-.098-.049-.147-.049h-.196c-.049 0-.147.098-.196.098zm2.106 17.607a1.908 1.908 0 0 1-1.91 1.902c-1.028 0-1.91-.878-1.91-1.902 0-.634.343-1.22.833-1.56.294-.245.686-.342 1.126-.342.441 0 .784.146 1.127.341.44.342.734.927.734 1.56z"/><text font-family="ArialMT, Arial" font-size="21" transform="translate(6 240)"><tspan x="118" y="27">Go to bottom snap</tspan></text></g><path d="M50.5 43.5h219.037" stroke="#FFF" stroke-width="3" stroke-linecap="square"/><text font-family="Arial-BoldMT, Arial" font-size="22" font-weight="bold" fill="#FFF"><tspan x="74" y="30">How to Navigate</tspan></text></g></svg>