<svg xmlns="http://www.w3.org/2000/svg" width="510" height="180"><path fill="#fff" d="M6 173.7h29.8v-54.2h17.6c24.3 0 28.5-.3 37.6-2.5 12.5-3 22.9-8.6 30.7-16.3 3.4-3.4 7.3-8.5 8.9-11.9.2-.3 2.6-5.5 3.6-8.6 2-6.1 2.7-11 2.7-19.2 0-5.5-.4-8.9-1.5-14-.6-2.7-2.2-7.8-3.2-9.8-3.1-6.6-5.7-10.4-10.5-15.1C111.4 11.7 97.5 6 79.4 4.7c-1.9-.1-16.7-.2-38.3-.2H6v169.2zM83.125 33.375c9.25 1.75 17.614 10.648 19.125 12.375.437.499 4.327 8.034 4.375 15.625.048 7.63-3.747 15.318-4.084 15.972C101.562 78.627 92.3 88.5 83.3 90.8c-6.1 1.5-8.8 1.7-30.4 1.7h-17V31.6H53c4.125-.004 22.712.373 30.125 1.775zM339.2 4.8c.1.2 69.7 169.1 69.7 169.1H435S504.8 4.799 504.8 4.7c0-.2-31.899-.2-31.899-.2S422.7 133.4 422.6 133.4c-.1 0-50.8-128.9-50.8-128.9l-32.6.3z"/><circle fill="none" stroke="#fff" stroke-width="29" stroke-dasharray="6" cx="245.75" cy="88.75" r="72.75"/></svg>